<svg viewBox="0 0 1024 1176.463" xmlns="http://www.w3.org/2000/svg"><path d="m536.832 891.13h.24c.6 1.52-22.993 66.782-31.59 87.496-1.96 4.64-2.64 5.798-3.68 5.718q-28.703-3.625-57.304-8c-36.23-5.518-96.892-16.115-112.207-19.594l-3.558-.8 21.713-4.88c46.547-10.476 68.9-16.114 91.574-23.072 33.882-10.487 62.204-21.67 89.496-34.665l-4 1.715c2.446-1.238 5.52-2.56 8.678-3.712l.64-.204zm-180.864-42.426c.2.2-10.117 16.716-28.232 45.267-7.68 12.037-16.356 25.793-19.315 30.472-2.998 4.72-7.36 11.917-9.676 15.996l-4.278 7.398-2.16-.56c-5.198-1.4-41.947-14.395-51.625-18.234-13.733-5.44-24.868-10.664-35.655-16.45l1.826.894c-9.552-4.78-17.772-10.058-25.362-16.095l.29.224 44.19-12.077c63.66-17.355 98.89-27.312 121.964-34.55 4.36-1.32 7.958-2.36 8-2.28zm25.672-.72c.12-.12 6.598 2.16 14.476 5.12 14.31 5.69 32.278 11.42 50.686 16.04l3.178.676c22.816 5.905 50.532 10.89 78.832 13.924l2.665.232c3.2.24 4.88.64 4.4.96-1 .64-22.395 7.758-38.11 12.716q-92.437 28.118-185.387 54.504c-.108.004-.234.006-.36.006-2.182 0-4.224-.596-5.972-1.635l.054.03c2.57-3.69 5.105-6.896 7.812-9.945l-.095.11c19.63-23.353 39.04-49.22 57.006-76.13l2.016-3.21q4.373-6.715 8.794-13.397zm-115.968-82.894 4.678 5.237c19.355 21.9 41.863 40.435 66.934 55.052l1.286.69c2.97 1.49 5.53 3.195 7.854 5.168l-.056-.047q-86.324 31.297-173.15 61.185-1.487-.887-2.88-1.92l-2.68-1.92 4.2-6.08c13.596-19.712 30.71-41.388 68.18-86.455zm-18.595-7.12c.36.36-18.154 26.833-43.987 63.022l-23.473 32.91c-3.88 5.56-9.797 14.317-13.156 19.515l-6.117 9.437-6.478-5.478c-9.75-8.583-18.6-17.6-26.763-27.22l-.31-.373c-11.085-13.085-19.474-28.827-24.082-46.112l-.19-.833c-1.518-6.958-1.6-10.477-.12-10.917q38.62-9.315 77.34-18.195l51.984-12.196c8.356-2.002 15.274-3.602 15.354-3.56zm331.385-11.317.08.12c0 3.2-7.318 33.11-13.436 54.784-5.12 18.112-9.437 32.31-17.395 57.464q-3.043 10.177-6.72 20.155c-45.38-7.878-85.668-19.552-123.987-35.07l4.022 1.44q-13.018-5.095-25.553-11.316c5.23-2.948 11.622-6.033 18.206-8.75l1.23-.45c66.18-28.832 134.724-61.702 158.155-75.82 1.543-1.105 3.34-1.98 5.277-2.53l.122-.028zm-143.56-50.105c-.813 2.7-1.67 4.94-2.66 7.105l.142-.347c-17.227 40.53-34.106 73.894-52.836 106.05l2.41-4.482q-4.796 8.796-10.077 17.315c-.2 0-4.558-2.64-9.756-5.8-29.46-17.72-54.554-39.21-75.61-64.21l-.37-.45-2.56-3.2 13.276-3.638c50.315-13.548 92.736-28.604 133.646-46.475l-6.082 2.368c5.68-2.4 10.398-4.358 10.478-4.238zm23.115-7.598c3.162 1.51 5.743 2.935 8.237 4.486l-.36-.208c32.048 18.228 69.142 33.077 108.316 42.616l2.973.612 3.36.8-4.6 2.518c-19.274 10.717-82.816 37.15-147.717 61.462q-10.273 3.84-20.514 7.758c-.947.476-2.047.85-3.2 1.068l-.08.012c0-.16 2.68-5.28 5.96-11.437 16.032-29.065 31.47-63.45 44.18-99.13l1.566-5.04c.92-2.92 1.76-5.4 1.878-5.52zm-226.695-40.588c.6 0 .44 1.12-.48 6.438q-1.188 7.755-1.64 15.596c-.16 2.194-.252 4.753-.252 7.333 0 18.72 4.836 36.31 13.326 51.592l-.277-.543c2.958 5.997 5.278 10.956 5.157 11.036-1.08.92-97.172 29.032-127.403 37.312l-17.395 4.8c-1.08.32-1.16.08-.8-2.4 7.398-28.805 22.197-53.487 42.254-72.728l.053-.05c13.63-14.38 29.384-26.566 46.8-36.094l.987-.495q19.632-11.266 39.667-21.798zm360.375-42.91v6.16c-.45 42.594-4.14 83.97-10.84 124.328l.643-4.683c-29.035-8.485-54.207-19.126-77.81-32.246l1.91.976c-13.17-6.955-24.285-13.877-34.88-21.48l.89.606c.12-.16 6.157-3.32 13.355-7.078 31.502-16.3 57.504-31.776 82.56-48.556l-3.062 1.93c8.877-5.92 22.194-15.556 25.152-18.155zm-250.647-10.195c-5 12.184-9.774 22.06-15.04 31.624l.804-1.593c-14.036 27.432-29.552 54.424-50.106 87.375l-7.278 11.516c-.72 1.08-1.04.72-3.28-3.76-4.883-9.717-8.762-20.995-11.06-32.836l-.136-.833c-.868-5.765-1.364-12.416-1.364-19.183 0-8.528.787-16.872 2.294-24.963l-.13.837c1.88-9.076 1.8-8.876 6.08-11.036 18.473-9.477 78.616-37.67 79.215-37.15zm29.11-11.996.4.16c.794 1.463 1.55 3.194 2.167 4.99l.074.248c6.707 16.49 14.79 30.72 24.446 43.71l-.372-.523c12.087 15.905 25.45 29.814 40.248 42.05l.42.337c.92.8 1.2.64-22.474 9.6q-45.46 17.14-91.733 31.99c-13.076 4.24-24.154 7.8-24.593 8-1.32.44-.92-.36 2.92-6.317 19.995-32.604 39.243-70.645 55.434-110.26l1.948-5.388c2.48-6.4 4.88-12.796 5.318-14.236.31-1.74 1.544-3.134 3.167-3.668l.032-.01c.753-.404 1.643-.653 2.59-.682h.008zm94.977-37.43c.205 4.397.322 9.552.322 14.734 0 9.677-.408 19.26-1.207 28.73l.084-1.237c-3.41 27.47-9.275 52.308-17.5 76.044l.78-2.585c-9.785-8.282-18.616-16.91-26.8-26.126l-.232-.267c-10.044-11.346-18.93-24.112-26.236-37.846l-.517-1.063c-2.934-5.537-5.673-12.062-7.838-18.843l-.24-.868c2.24-1.602 78.822-31.194 79.38-30.673zm20.15-7.718c4.813 1.805 8.975 4.125 12.72 6.967l-.123-.09c24.103 15.556 52.91 31.856 82.632 46.59l5.343 2.396c5.44 2.4 6.037 1.44-6.4 9.877-28.546 19.057-61.343 37.004-95.703 52.045l-4.15 1.62q-6.55 2.995-13.236 5.677c.33-2.978.935-5.688 1.8-8.28l-.08.28c8.884-30.362 14.47-65.386 15.463-101.558l.012-.573c.08-14.476.08-14.556 1.48-14.916h.24zm97.893-32.11c4.18 21.48 6.928 46.555 7.624 72.143l.014.635c.163 1.304.255 2.813.255 4.343 0 1.953-.15 3.87-.442 5.742l.028-.208c-1.12 0-24.593-13.796-41.268-24.233q-23.604-14.87-46.464-30.87c-1.4-1.12-1.24-1.16 10.637-5.24 20.194-6.957 68.14-22.313 69.66-22.313zm43.987-25.793-192.265 62.7-167.15 73.818-46.785 12.397q-17.875 16.915-37.91 34.39c-14.795 12.836-28.63 24.473-39.188 32.87-13.96 11.6-26.433 23.97-37.747 37.35l-.363.44c-11.49 13.617-20.99 29.4-27.754 46.562l-.397 1.142c-2.525 7.423-3.983 15.973-3.983 24.863 0 17.692 5.77 34.036 15.532 47.254l-.154-.22c27.28 34.517 62.634 61.484 103.274 78.24l1.693.618c25.2 10.927 55.953 21.51 87.604 29.88l4.77 1.07c57.146 13.605 124.56 23.574 193.522 27.823l3.46.172c3.602.213 7.814.334 12.054.334 4.72 0 9.406-.15 14.052-.447l-.634.03c6.006-9.71 12.277-21.38 17.887-33.42l.907-2.168c26.742-51.43 50.02-111.372 66.684-174.008l1.418-6.26c8.225-36.03 14.4-78.804 17.227-122.49l.128-2.474c1.08-14.156 1.48-61.302.64-77.338-1.116-25.042-3.734-48.515-7.797-71.488l.48 3.268c-.354-1.31-.557-2.813-.557-4.364 0-.575.027-1.144.082-1.706l-.006.07c.56-.4 2.36-1 25.992-7.877zm-172.31-336.224c.6.04 1.28 1.28 3.078 5.238 4.96 10.88 20.394 40.308 24.113 45.987 1.2 1.88 3.2 2-17.315-1.32-49.186-7.916-65.14-10.594-65.14-10.914.958-.836 2.05-1.558 3.23-2.122l.088-.037c16.783-9.498 31.266-19.647 44.683-31.016l-.415.344 6.998-5.878zm-174.03-34.752 20.433 25.512c11.277 13.996 22.554 27.952 25.033 30.95 1.517 1.672 2.94 3.5 4.214 5.432l.104.168c-.558.44-29.59-5.2-44.986-8.758q-16.252-3.456-32.11-8.477l-8-2.56.04-1.958c.12-9.797 12.475-24.273 33.43-39.03zm5.718-4.56 5.638 1.92c43.306 12.893 94.574 23.04 147.24 28.48l3.717.312c4.8.4 8.877.84 8.997.96-2.49 1.555-5.477 3.18-8.56 4.64l-.557.238c-20.594 10.317-43.308 22.912-59.023 32.75-2.706 1.89-5.795 3.615-9.052 5.026l-.345.133q-3.41-.48-6.798-1.08l-5.76-.92-14.596-14.196c-25.633-24.793-45.627-43.987-53.384-51.185zm140.04-65.098h.2c.12.12.68 4.2 1.28 8.998 2.908 22.893 7.87 43.572 14.81 63.32l-.655-2.136c5.358 15.996 5.44 15.076-.96 13.276-14.796-4.122-81.257-15.517-129.325-22.195q-7.158-.915-14.276-2.12c-.6-.6 34.67-19.073 50.303-26.393 20.036-9.277 74.66-31.99 78.62-32.75zm2.44-7.438c-3.2-.4-54.825 18.195-87.976 31.63-38.883 14.863-72.27 31.97-103.475 52.166l2.144-1.3c-7.745 5.31-14.232 11.823-19.353 19.34l-.163.254c-.532 1.434-.84 3.09-.84 4.82v.104-.005l19.515 18.395 46.306 14.796 110.328 19.755 126.089 21.674 1.28-10.797-1.12-.2-16.598-2.64-3.402-5.918q-25.708-45.353-47.066-92.973c-7.12-15.694-14.33-35.136-20.3-55.113l-.89-3.47c-2.72-9.718-3-10.318-4.48-10.518zm-39.95 458.308c-8.785 11.285-17.7 21.33-27.213 30.772l-.02.02c-26.524 27.234-56.097 51.278-88.232 71.645l-1.982 1.173c-4.32 2.76-8.237 5.2-8.797 5.518-.92.56.32-.88 15.437-17.355 9.517-10.358 16.796-18.955 25.113-29.712 3.878-5.565 8.7-10.182 14.274-13.716l.203-.12c21.473-15.516 70.66-48.826 71.22-48.266zm22.554-5.598c.68-.12 1.6 1.12 5.557 6.998 8.06 12.04 13.794 26.325 16.2 41.714l.075.594.32 2.92-19.875 7.68c-35.59 13.835-68.42 27.47-90.614 37.588-6.198 2.88-17.115 8.077-24.273 11.676s-12.996 6.4-12.996 6.24 4.48-3.56 9.997-7.52c41.29-29.6 77.16-62.767 108.533-99.86l.716-.87c2.998-3.678 5.76-6.877 6.117-7.117l.24-.08zm-48.907-38.39c12.374 5.994 23.04 12.9 32.737 20.93l-.266-.215c-2.468 2.578-5.22 4.848-8.22 6.77l-.177.108c-13.796 9.958-34.79 25.754-46.907 35.43-12.796 10.2-13.233 10.52-11.796 8.28 6.655-9.583 13.122-20.587 18.76-32.07l.675-1.52c3.996-8.13 8.11-18.18 11.606-28.516l.55-1.874c.722-2.776 1.777-5.212 3.146-7.434l-.067.117zm183.547-44.986c.36.36-19.674 28.392-31.552 44.228-14.236 18.915-39.59 50.585-57.024 71.18q-6.678 8.144-13.836 15.872c-.4.12-.6-2-.64-5.318-.167-19.067-4.696-37.036-12.635-53.013l.318.708c-3.318-6.72-3.878-8.32-3.2-8.96 2.72-2.48 45.068-26.632 71.74-40.908 18.358-9.832 46.51-24.148 46.83-23.788zm30.35-7.597 7.08 4.598c19.116 12.588 35.477 24.74 51.135 37.714l-.95-.765c8.237 6.878 24.192 21.194 27.472 24.633l1.76 1.88-11.757 3.28q-90.17 24.593-177.95 56.943c-6.677 2.44-12.396 4.48-12.8 4.48-.84 0-1.678.76 13.317-13.036 36.364-33.16 68.493-69.885 96.18-109.918l1.395-2.134zm-115.485-47.507c-2.43 11.335-5.047 20.714-8.15 29.868l.552-1.876c-9.377 27.693-20.67 51.584-34.297 73.892l.907-1.597-3.6 5.878-8.117-7.875c-7.723-7.867-16.634-14.533-26.45-19.714l-.582-.28c-2.693-1.228-5.005-2.59-7.155-4.16l.115.08c0-1.2 24.793-23.712 43.904-39.907 13.722-11.597 42.554-34.67 42.874-34.31zm18.993-3.36c2.04.4 20.914 9.198 35.15 16.316 12.995 6.518 32.71 17.036 33.71 17.955.12.12-6.798 3.718-15.436 8.037-27.313 13.676-50.706 26.552-75.1 41.468-6.997 4.278-12.795 7.757-12.995 7.757-.6 0-.4-.52 3.52-7.638 12.647-23.075 22.82-49.81 29.126-78.004l.386-2.053c.56-2.48 1.198-4 1.64-3.88zm323.427-33.19c3.16 1.083 5.896 2.435 8.42 4.086l-.142-.087c36.866 21.327 68.716 45.485 97.23 73.07l-.135-.13c7.758 7.597 26.673 27.31 26.393 27.47l-14.515 1.16c-80.427 7.28-153.583 19.9-224.627 37.827l9.89-2.114c-5.12 1.2-9.518 2.24-9.838 2.24-.28 0 5.32-5.6 12.436-12.477 36.353-32.34 66.006-71.313 87.218-115.134l.957-2.193c3.52-7.118 6.52-13.316 6.64-13.676h.08zm-11.117-2.92c.28.32-9.357 15.396-15.356 23.994-8.797 12.556-21.474 29.032-50.426 65.46l-38.15 48.065q-5.225 6.78-10.755 13.316c-1.34-1.686-2.696-3.59-3.954-5.563l-.164-.276c-16.807-24.868-36.227-46.256-58.286-64.577l-.498-.402q-5.318-4.456-10.797-8.717c-1.11-.753-2.08-1.583-2.947-2.51l-.01-.01c0-.4 24.674-10.956 43.508-18.634q54.734-22 111.09-39.588c17.674-5.4 36.47-10.797 36.748-10.557zm-424.277-.402c.4-.4 20.555 4.32 31.553 7.398 21.384 5.99 38.564 11.896 55.33 18.61l-3.665-1.295c0 .158-3.88 3.557-8.598 7.516-18.995 15.876-37.35 32.512-59.302 53.705q-5.93 5.94-12.317 11.397c-.28 0-.4-.92-.24-2 1.276-10.91 2.003-23.552 2.003-36.364 0-18.12-1.455-35.9-4.255-53.23l.253 1.9c-.425-2.23-.712-4.848-.796-7.516l-.002-.08zm263.126-60.463c1.32 0 27.792 7.198 41.468 11.316 39.837 11.9 72.667 24.188 104.485 38.338l-5.515-2.19 10.596 4.8-7.477 1.72c-64.98 14.614-120.923 32.43-174.703 54.444l7.23-2.62c-4.277 1.76-8 3.2-8.276 3.2.81-2.828 1.83-5.28 3.094-7.584l-.095.19c14.012-28.142 23.943-60.86 27.98-95.378l.134-1.396c.238-2.68.717-4.838 1.078-4.838zm-11.037-1.72c-.59 7.128-1.724 13.67-3.38 20l.18-.804c-9.52 31.983-21.958 59.817-37.473 85.587l.923-1.652c-2.047 3.82-4.062 7.037-6.265 10.11l.185-.272c-3.392-1.45-6.27-2.988-8.995-4.742l.237.144c-15.77-9.33-34.507-18.672-53.908-26.738l-3.076-1.134q-5.636-2.215-11.117-4.8c-.96-.88 45.708-31.79 70.46-46.627 19.798-11.87 51.67-29.626 52.23-29.066zm-154.357-30.547c.44-.4 60.143 9.917 87.255 15.116 20.234 3.88 49.466 9.997 51.225 10.757.88.32-2.16 1.998-11.876 6.4-36.71 16.128-67.96 33.408-97.438 53.13l2.264-1.426c-7.438 4.96-13.636 9.037-13.756 9.037-.178-2.005-.28-4.34-.28-6.698 0-.88.015-1.755.043-2.628l-.002.127v-.562c0-28.31-5.747-55.275-16.14-79.795l.505 1.34c-.677-1.353-1.29-2.947-1.754-4.604l-.047-.194zm-9.997-1.44c2.412 4.68 4.216 10.115 5.12 15.848l.04.306c4.473 17.398 7.04 37.37 7.04 57.942 0 7.433-.334 14.788-.99 22.05l.068-.935-.48 1.52-7.48-2.4c-15.515-4.96-40.787-12.397-62.463-18.395q-11.34-2.903-22.393-6.798c8.194-9.1 16.573-17.478 25.368-25.403l.304-.27c16.614-14.494 34.82-28.763 53.76-42.062l2.105-1.402zm-125.844-23.91c2.927.285 5.58.765 8.155 1.44l-.357-.08c24.753 5.44 68.98 13.996 97.372 18.794 3.222.37 6.148 1.03 8.946 1.97l-.306-.09c-1.116 1.005-2.412 1.84-3.828 2.445l-.09.035c-4.76 2.4-24.074 13.956-30.512 18.275-15.43 10.208-28.89 21.014-41.283 32.923l.095-.09q-3.84 3.937-7.878 7.68c-.608-1.515-1.172-3.346-1.593-5.232l-.046-.247c-7.82-27.827-16.676-51.453-27.24-74.123l1.245 2.976q-1.583-3.226-2.84-6.598zm-71.58-19.757c2.19.527 4.02 1.103 5.795 1.785l-.316-.107c5.44 1.84 12.637 4 21.035 6.358 5.84 1.6 12.276 3.36 19.155 5.078 8.717 2.24 15.956 4.16 16.036 4.28.96 1.08 15.635 47.905 20.634 65.86 1.92 6.878 3.36 12.596 3.24 12.716-1.322-1.632-2.518-3.467-3.517-5.42l-.083-.178c-20.028-33.246-45-61.3-74.26-84.107l-.678-.508q-3.623-2.75-7.038-5.76zm-37.428-36.353c-.966 1.882-1.532 4.106-1.532 6.463 0 2.228.506 4.338 1.41 6.22l-.037-.086c3.654 6.3 8.184 11.646 13.5 16.078l.096.077s64.582 63.02 72.5 72.138c32.737 35.765 52.795 83.61 52.795 136.137 0 .683-.003 1.366-.01 2.048v-.104c.042 1.6.065 3.487.065 5.38 0 36.08-8.484 70.18-23.566 100.414l.59-1.305c-48.874 87.74-113.42 160.97-190.526 218.246l-1.82 1.292 14.396-4.8c14.6-10.14 31.505-20.312 49.058-29.404l2.606-1.228c66.154-36.47 145.248-72.647 227.08-103.212l12.81-4.194c136.466-51.303 299.905-96.51 468.28-127.647l31.697-4.875-2-3.2c-9.906-15.708-19.52-29.103-29.844-41.904l.654.837c-28.355-34.693-62.546-63.387-101.273-84.91l-1.776-.905c-64.775-34.387-139.95-60.564-219.34-74.51l-4.596-.67q-43.682-8.213-87.616-14.995-78.577-12.05-156.915-25.592c-16.995-3-42.388-7.238-59.223-10.88-15.62-3.325-28.5-6.882-41.082-11.086l2.653.77c-10.714-4.196-25.79-8.276-29.03-20.592z"/></svg>