<svg height="297mm" width="210mm" xmlns="http://www.w3.org/2000/svg" xmlns:xlink="http://www.w3.org/1999/xlink"><linearGradient id="a" gradientTransform="matrix(17.052253 0 0 -14.353217 633.83605 1031.9224)" gradientUnits="userSpaceOnUse" x1="32.133057" x2="37.948807" y1="48.969127" y2="48.969127"><stop offset="0" stop-color="#fff"/><stop offset="1" stop-color="#fff" stop-opacity="0"/></linearGradient><linearGradient id="b" gradientTransform="matrix(14.74095 0 0 -16.603731 724.66737 964.95276)" gradientUnits="userSpaceOnUse" x1="35.996582" x2="33.664921" y1="40.458221" y2="37.770721"><stop offset="0" stop-color="#2e3436"/><stop offset="1" stop-color="#babdb6"/></linearGradient><linearGradient id="c" gradientTransform="matrix(18.061451 0 0 -17.374519 609.45182 1005.4709)" gradientUnits="userSpaceOnUse" x1="22.308331" x2="35.785294" y1="18.99214" y2="39.498238"><stop offset="0" stop-color="#eeeeec"/><stop offset=".59928656" stop-color="#eeeeec"/><stop offset=".82758623" stop-color="#fff"/><stop offset="1" stop-color="#d3d7cf"/></linearGradient><g transform="matrix(1.1056529 0 0 1.1056529 -710.03876 -111.7333)"><path d="m583.50946 205.84126h768.77655v768.77655h-768.77655z" fill="none"/><g fill-rule="evenodd"><path d="m790.21697 891.91592h505.27683c5.3434 0 9.6452-4.44504 9.6452-9.96643v-477.13658c0-43.49358-116.431-145.82595-156.8466-145.82595h-358.07543c-5.34344 0-9.64518 4.44502-9.64518 9.96645v612.99608c0 5.52139 4.30174 9.96643 9.64518 9.96643z" fill="url(#c)" stroke="#888a85" stroke-width="17.240259"/><path d="m824.54431 493.22943h371.88727v35.417835h-371.88727z" opacity=".170455"/><path d="m824.54431 561.14105h354.0408v35.417835h-354.0408z" opacity=".170455"/><path d="m825.03113 632.0946h318.34793v35.417835h-318.34793z" opacity=".170455"/><path d="m825.40112 705.73651h371.88727v35.417835h-371.88727z" opacity=".170455"/><path d="m1167.7668 259.23509c29.9303-5.47753 141.348 75.21373 136.8611 141.09593-23.044-40.23246-70.1452-21.36466-130.7122-24.00481 0 0 5.8282-108.78925-6.1489-117.09112z" fill="url(#b)" stroke="#888a85" stroke-width="15.644646"/></g><path d="m1189.1476 295.6222c20.1919 11.35412 65.2766 35.63934 84.4308 66.87102-23.528-11.29145-43.4536-3.47842-84.0579-3.16143 0 0 2.3928-50.84219-.3729-63.70959z" fill="none" opacity=".369318" stroke="url(#a)" stroke-width="15.644638"/><path d="m604.95697 393.99133h532.34845v320.20959h-532.34845z" fill="#ce5c00" stroke="#ce5c00" stroke-linecap="round" stroke-linejoin="round" stroke-width="16.978657"/><path d="m619.7118 698.71604 501.7026.1214-.293-289.63889-501.61684.29307z" fill="#f57900" stroke="#fcaf3e" stroke-linejoin="round" stroke-width="14.856324"/><g fill="#fff" stroke="#fff" stroke-width="7.676111" transform="matrix(1.5111622 0 0 1.8006318 2338.8381 -91.853651)"><path d="m-1113.8047 306.77407h15.2578l26.086 39.02343 26.2265-39.02343h15.2578l-33.75 50.41406 36 54.5625h-15.2578l-29.5312-44.64844-29.7422 44.64844h-15.3281l37.4765-56.03906z"/><path d="m-1010.0234 306.77407h21.16403l26.78906 71.4375 26.92969-71.4375h21.16406v104.97656h-13.85156v-92.17969l-27.07032 72h-14.27343l-27.07032-72v92.17969h-13.78121z"/><path d="m-885.71094 306.77407h14.20313v93.02343h51.11719v11.95313h-65.32032z"/></g></g></svg>